<svg width="570" height="228" viewBox="0 0 570 228" fill="none" xmlns="http://www.w3.org/2000/svg">
<path d="M199 113V3H215.5L250 62.5L284 3H288.5H341C341 3 350.584 3.06395 356 5.5C362.804 8.5605 366.866 11.7293 370 18.5C372.8 24.5481 371.909 28.8478 371.5 35.5C371.096 42.0746 371.55 46.4512 368 52C365.09 56.5495 362.232 58.3965 357.5 61C354.036 62.906 348 64.5 348 64.5C348 64.5 351.534 68.0025 353.5 70.5C356.214 73.9477 357.244 76.2362 359.5 80C365.381 89.8133 373 106 373 106L376 113H199Z" stroke="black" stroke-width="5"/>
<path d="M60.32 131.16V183H51.36V146.6C50.4533 149 49.36 151.453 48.08 153.96L37.12 175.48H29.28L18.48 153.96C16.7733 150.653 15.6 148.147 14.96 146.44V183H6.16V131.16H16L27.76 153.96C30.48 159.347 32.32 163.48 33.28 166.36C34.2933 163.213 36.1333 159.08 38.8 153.96L50.64 131.16H60.32ZM71.6862 183V147.64L80.3263 146.76V183H71.6862ZM71.6862 143.88L68.6463 139.88L81.9263 129.4L86.5663 136.36L71.6862 143.88ZM109.547 146.44C111.04 146.44 112.587 146.68 114.187 147.16L112.747 155.96C111.894 155.64 111.094 155.4 110.347 155.24C109.6 155.08 108.774 155 107.867 155C106.32 155 104.854 155.347 103.467 156.04C102.134 156.733 100.8 158.04 99.4669 159.96V183H90.8269V147.56L99.4669 146.76V151.8C100.747 150.04 102.24 148.707 103.947 147.8C105.707 146.893 107.574 146.44 109.547 146.44ZM124.674 141.16C123.661 141.16 122.701 140.92 121.794 140.44C120.941 139.907 120.248 139.213 119.714 138.36C119.181 137.453 118.914 136.493 118.914 135.48C118.914 134.467 119.181 133.533 119.714 132.68C120.248 131.773 120.941 131.053 121.794 130.52C122.701 129.987 123.661 129.72 124.674 129.72C125.741 129.72 126.728 129.987 127.634 130.52C128.541 131.053 129.261 131.773 129.794 132.68C130.328 133.533 130.594 134.467 130.594 135.48C130.594 136.493 130.328 137.453 129.794 138.36C129.261 139.213 128.541 139.907 127.634 140.44C126.728 140.92 125.741 141.16 124.674 141.16ZM120.514 183V147.64L129.154 146.76V183H120.514ZM154.775 146.44C159.148 146.44 162.428 147.373 164.615 149.24C166.802 151.107 167.895 154.093 167.895 158.2V183H160.375L159.735 180.04C157.762 181.48 155.735 182.493 153.655 183.08C151.628 183.72 149.522 184.04 147.335 184.04C145.202 184.04 143.308 183.64 141.655 182.84C140.055 182.04 138.802 180.92 137.895 179.48C136.988 177.987 136.535 176.28 136.535 174.36C136.535 171.48 137.548 169.08 139.575 167.16C141.602 165.187 144.322 163.72 147.735 162.76C151.148 161.8 154.988 161.267 159.255 161.16V159.8C159.255 157.507 158.828 155.853 157.975 154.84C157.122 153.827 155.628 153.32 153.495 153.32C149.815 153.32 145.868 154.68 141.655 157.4L138.135 151.88C140.695 150.067 143.335 148.707 146.055 147.8C148.775 146.893 151.682 146.44 154.775 146.44ZM145.575 173.4C145.575 174.68 145.948 175.667 146.695 176.36C147.495 177 148.642 177.32 150.135 177.32C153.122 177.32 156.162 176.413 159.255 174.6V166.92C154.988 167.133 151.628 167.8 149.175 168.92C146.775 169.987 145.575 171.48 145.575 173.4ZM220.333 146.44C223.533 146.44 226.013 147.347 227.773 149.16C229.586 150.92 230.493 153.64 230.493 157.32V183H221.853V160.28C221.853 158.52 221.693 157.16 221.373 156.2C221.053 155.187 220.546 154.467 219.852 154.04C219.159 153.613 218.199 153.4 216.973 153.4C214.359 153.4 211.533 154.2 208.493 155.8C208.546 156.12 208.573 156.627 208.573 157.32V183H199.933V160.28C199.933 158.52 199.773 157.16 199.453 156.2C199.133 155.187 198.626 154.467 197.933 154.04C197.239 153.613 196.279 153.4 195.053 153.4C193.773 153.4 192.413 153.613 190.973 154.04C189.533 154.467 188.119 155.053 186.733 155.8V183H178.092V147.64L186.733 146.76V149.88C190.733 147.587 194.626 146.44 198.413 146.44C202.466 146.44 205.293 147.773 206.893 150.44C208.919 149.267 211.079 148.307 213.373 147.56C215.666 146.813 217.986 146.44 220.333 146.44ZM298.369 182.6V183H293.329L276.849 161.48H266.769V183H262.369V131.16H277.489C281.276 131.16 284.529 131.773 287.249 133C289.969 134.173 292.049 135.88 293.489 138.12C294.929 140.307 295.649 142.893 295.649 145.88C295.649 148.493 295.116 150.867 294.049 153C293.036 155.08 291.489 156.84 289.409 158.28C287.329 159.72 284.769 160.68 281.729 161.16L298.369 182.6ZM266.769 157.72H277.329C281.916 157.72 285.356 156.68 287.649 154.6C289.996 152.52 291.169 149.72 291.169 146.2C291.169 142.68 289.996 139.933 287.649 137.96C285.356 135.987 281.916 135 277.329 135H266.769V157.72ZM317.798 183.88C314.331 183.88 311.398 183.08 308.997 181.48C306.598 179.88 304.784 177.72 303.558 175C302.331 172.227 301.718 169.133 301.718 165.72C301.718 161.613 302.491 158.227 304.038 155.56C305.584 152.84 307.638 150.867 310.197 149.64C312.758 148.413 315.638 147.8 318.838 147.8C322.304 147.8 325.238 148.573 327.638 150.12C330.091 151.667 331.904 153.8 333.078 156.52C334.304 159.24 334.918 162.333 334.918 165.8C334.918 169.96 334.171 173.4 332.678 176.12C331.184 178.787 329.158 180.76 326.598 182.04C324.038 183.267 321.104 183.88 317.798 183.88ZM318.278 180.28C322.384 180.28 325.451 179 327.478 176.44C329.504 173.827 330.518 170.253 330.518 165.72C330.518 161.347 329.531 157.853 327.558 155.24C325.584 152.627 322.571 151.32 318.518 151.32C314.304 151.32 311.184 152.627 309.158 155.24C307.131 157.8 306.118 161.293 306.118 165.72C306.118 170.147 307.104 173.693 309.078 176.36C311.104 178.973 314.171 180.28 318.278 180.28ZM371.723 127.48V183H367.963L367.723 180.2C365.803 181.373 363.776 182.28 361.643 182.92C359.563 183.56 357.536 183.88 355.563 183.88C352.416 183.88 349.776 183.16 347.643 181.72C345.563 180.227 344.016 178.2 343.003 175.64C341.99 173.08 341.483 170.2 341.483 167C341.483 163.16 342.203 159.8 343.643 156.92C345.083 153.987 347.136 151.747 349.803 150.2C352.47 148.6 355.59 147.8 359.163 147.8C362.096 147.8 364.896 148.307 367.563 149.32V127.96L371.723 127.48ZM345.883 166.84C345.883 170.947 346.763 174.2 348.523 176.6C350.283 179 352.923 180.2 356.443 180.2C358.523 180.2 360.47 179.907 362.283 179.32C364.096 178.68 365.856 177.853 367.563 176.84V152.84C364.896 151.773 362.176 151.24 359.403 151.24C356.63 151.24 354.23 151.853 352.203 153.08C350.176 154.253 348.603 156.013 347.483 158.36C346.416 160.707 345.883 163.533 345.883 166.84ZM398.607 147.8C399.354 147.8 400.074 147.853 400.767 147.96C401.46 148.013 402.234 148.147 403.087 148.36L402.047 152.6C400.5 152.12 399.14 151.88 397.967 151.88C396.1 151.88 394.34 152.44 392.687 153.56C391.087 154.627 389.7 156.413 388.527 158.92V183H384.367V148.6L388.527 148.12V153.8C389.86 151.773 391.38 150.28 393.087 149.32C394.847 148.307 396.687 147.8 398.607 147.8ZM413.164 139.08C412.364 139.08 411.644 138.787 411.004 138.2C410.417 137.56 410.124 136.84 410.124 136.04C410.124 135.187 410.417 134.467 411.004 133.88C411.644 133.24 412.364 132.92 413.164 132.92C414.017 132.92 414.737 133.24 415.324 133.88C415.964 134.467 416.284 135.187 416.284 136.04C416.284 136.84 415.964 137.56 415.324 138.2C414.737 138.787 414.017 139.08 413.164 139.08ZM411.164 183V148.6L415.324 148.12V183H411.164ZM446.921 179C450.974 179.427 453.987 180.36 455.961 181.8C457.987 183.187 459.001 185.16 459.001 187.72C459.001 189.853 458.254 191.747 456.761 193.4C455.267 195.107 453.107 196.413 450.281 197.32C447.507 198.28 444.201 198.76 440.361 198.76C435.401 198.76 431.534 197.933 428.761 196.28C425.987 194.627 424.601 192.147 424.601 188.84C424.601 186.973 425.081 185.32 426.041 183.88C427.001 182.493 428.467 181.133 430.441 179.8C428.681 178.787 427.801 177.32 427.801 175.4C427.801 174.387 428.094 173.453 428.681 172.6C429.267 171.693 430.174 170.84 431.401 170.04C429.694 168.92 428.414 167.507 427.561 165.8C426.707 164.04 426.281 162.147 426.281 160.12C426.281 157.4 426.921 155.133 428.201 153.32C429.481 151.453 431.214 150.067 433.401 149.16C435.641 148.253 438.147 147.8 440.921 147.8C442.574 147.8 444.014 147.96 445.241 148.28L457.241 143.72L458.681 147.16L449.161 150.04C451.187 151.267 452.681 152.787 453.641 154.6C454.601 156.36 455.081 158.227 455.081 160.2C455.081 162.867 454.414 165.107 453.081 166.92C451.801 168.733 450.041 170.093 447.801 171C445.561 171.907 443.054 172.36 440.281 172.36C437.987 172.36 435.881 172.013 433.961 171.32C432.627 172.493 431.961 173.613 431.961 174.68C431.961 175.747 432.574 176.547 433.801 177.08C435.027 177.613 436.974 178.013 439.641 178.28L446.921 179ZM440.681 151C437.107 151 434.494 151.88 432.841 153.64C431.241 155.347 430.441 157.48 430.441 160.04C430.441 162.707 431.241 164.893 432.841 166.6C434.494 168.253 437.134 169.08 440.761 169.08C443.961 169.08 446.441 168.333 448.201 166.84C450.014 165.293 450.921 163.107 450.921 160.28C450.921 158.413 450.494 156.787 449.641 155.4C448.787 153.96 447.587 152.867 446.041 152.12C444.494 151.373 442.707 151 440.681 151ZM440.521 195.24C442.654 195.24 444.787 195 446.921 194.52C449.107 194.093 450.947 193.347 452.441 192.28C453.934 191.213 454.681 189.8 454.681 188.04C454.681 186.44 453.961 185.187 452.521 184.28C451.134 183.427 448.894 182.84 445.801 182.52L438.601 181.8C436.787 181.64 435.054 181.347 433.401 180.92C430.254 183.053 428.681 185.507 428.681 188.28C428.681 190.84 429.667 192.627 431.641 193.64C433.614 194.707 436.574 195.24 440.521 195.24ZM494.238 148.12V183H490.478L490.238 179.8C488.318 180.973 486.238 181.96 483.998 182.76C481.811 183.507 479.598 183.88 477.358 183.88C474.105 183.88 471.385 183.053 469.198 181.4C467.065 179.693 465.998 176.867 465.998 172.92V148.6L470.158 148.12V171.64C470.158 173.667 470.398 175.293 470.878 176.52C471.411 177.747 472.265 178.68 473.438 179.32C474.665 179.907 476.318 180.2 478.398 180.2C480.318 180.2 482.265 179.853 484.238 179.16C486.265 178.413 488.211 177.48 490.078 176.36V148.6L494.238 148.12ZM533.587 162.28C533.587 163.827 533.534 165.107 533.427 166.12H507.987C508.04 171.027 509.054 174.627 511.027 176.92C513.054 179.16 515.854 180.28 519.427 180.28C521.134 180.28 522.654 180.12 523.987 179.8C525.32 179.427 526.467 179 527.427 178.52C528.44 177.987 529.587 177.293 530.867 176.44L532.547 179.48C530.574 180.867 528.52 181.96 526.387 182.76C524.307 183.507 521.96 183.88 519.347 183.88C514.6 183.88 510.814 182.413 507.987 179.48C505.214 176.547 503.827 172.013 503.827 165.88C503.827 162.84 504.414 159.96 505.587 157.24C506.76 154.467 508.547 152.2 510.947 150.44C513.347 148.68 516.334 147.8 519.907 147.8C522.947 147.8 525.48 148.44 527.507 149.72C529.587 151 531.107 152.733 532.067 154.92C533.08 157.053 533.587 159.507 533.587 162.28ZM519.907 151.08C517.507 151.08 515.48 151.64 513.827 152.76C512.174 153.88 510.867 155.32 509.907 157.08C509 158.84 508.414 160.76 508.147 162.84H529.587V162.2C529.587 158.68 528.787 155.96 527.187 154.04C525.587 152.067 523.16 151.08 519.907 151.08ZM553.435 183.88C550.502 183.88 547.888 183.507 545.595 182.76C543.302 182.013 541.088 180.867 538.955 179.32L540.955 176.2C544.742 178.973 548.822 180.36 553.195 180.36C555.968 180.36 558.182 179.8 559.835 178.68C561.542 177.56 562.395 176.013 562.395 174.04C562.395 172.76 562.075 171.693 561.435 170.84C560.848 169.933 559.915 169.187 558.635 168.6C557.408 167.96 555.702 167.347 553.515 166.76L550.875 166.04C547.462 165.187 544.902 164.067 543.195 162.68C541.488 161.293 540.635 159.4 540.635 157C540.635 155.133 541.142 153.507 542.155 152.12C543.222 150.733 544.662 149.667 546.475 148.92C548.342 148.173 550.448 147.8 552.795 147.8C555.035 147.8 557.115 148.067 559.035 148.6C561.008 149.08 563.168 149.96 565.515 151.24L563.675 154.36C561.595 153.24 559.702 152.467 557.995 152.04C556.342 151.56 554.635 151.32 552.875 151.32C550.422 151.32 548.475 151.8 547.035 152.76C545.648 153.667 544.955 155 544.955 156.76C544.955 157.827 545.195 158.707 545.675 159.4C546.208 160.04 546.982 160.6 547.995 161.08C549.008 161.507 550.422 161.96 552.235 162.44L554.875 163.16C557.702 163.907 559.968 164.733 561.675 165.64C563.382 166.493 564.635 167.587 565.435 168.92C566.288 170.2 566.715 171.8 566.715 173.72C566.715 175.693 566.182 177.453 565.115 179C564.048 180.547 562.502 181.747 560.475 182.6C558.502 183.453 556.155 183.88 553.435 183.88Z" fill="black"/>
</svg>
